<svg width="20" height="26" viewBox="0 0 20 26" fill="none" xmlns="http://www.w3.org/2000/svg">
<path d="M7.25098 12.0605L7.15332 14.5508C7.15332 14.9984 7.25911 15.6616 7.4707 16.5405C7.69043 17.4113 7.80029 18.0542 7.80029 18.4692C7.80029 18.8924 7.86947 19.4824 8.00781 20.2393C8.14616 20.9961 8.21533 21.6024 8.21533 22.0581C8.21533 22.522 8.01595 22.7539 7.61719 22.7539C7.22656 22.7539 7.03125 22.526 7.03125 22.0703C7.03125 21.6227 7.10042 21.0205 7.23877 20.2637C7.38525 19.515 7.4585 18.9535 7.4585 18.5791C7.4585 18.2048 7.32829 17.863 7.06787 17.5537C6.80745 17.2526 6.49821 17.1021 6.14014 17.1021C5.32633 17.1021 4.91943 18.0908 4.91943 20.0684C4.91943 20.5322 4.98047 21.228 5.10254 22.1558C5.22461 23.0835 5.28564 23.7183 5.28564 24.0601C5.28564 24.7274 5.08626 25.061 4.6875 25.061C4.48405 25.061 4.32536 24.9715 4.21143 24.7925C4.10563 24.6216 4.05273 24.3734 4.05273 24.0479C4.05273 23.7223 4.12191 23.1283 4.26025 22.2656C4.40674 21.403 4.47998 20.7764 4.47998 20.3857C4.47998 19.9951 4.45557 19.6248 4.40674 19.2749C4.36605 18.9331 4.28467 18.5628 4.1626 18.1641C4.04867 17.7734 3.86149 17.4561 3.60107 17.2119C3.3488 16.9678 3.01921 16.8457 2.6123 16.8457C2.21354 16.8457 1.8514 17.0207 1.52588 17.3706C1.2085 17.7205 1.0498 18.0501 1.0498 18.3594C1.0498 18.6768 1.10677 19.0063 1.2207 19.3481C1.33464 19.6899 1.3916 19.9544 1.3916 20.1416C1.3916 20.4997 1.25732 20.6787 0.98877 20.6787C0.728353 20.6787 0.598145 20.4997 0.598145 20.1416L0.891113 18.1885L0.878906 2.64893C0.878906 1.68864 0.585938 0.887044 0 0.244141L0.244141 0C0.895182 0.577799 1.69678 0.866699 2.64893 0.866699H16.7358C17.688 0.866699 18.4896 0.577799 19.1406 0L19.3848 0.244141C18.807 0.895182 18.5181 1.6276 18.5181 2.44141C18.5181 3.25521 18.571 3.8859 18.6768 4.3335C18.7826 4.78109 19.0186 5.2124 19.3848 5.62744L19.1406 5.87158C18.7093 5.29378 18.1722 5.00488 17.5293 5.00488H8.26416C7.80843 5.00488 7.41781 4.85026 7.09229 4.54102L6.86035 4.77295C7.1696 5.09847 7.32422 5.49316 7.32422 5.95703C7.32422 6.4209 7.1696 6.81559 6.86035 7.14111L7.09229 7.37305C7.36084 7.11263 7.68229 6.9458 8.05664 6.87256C8.43913 6.79932 8.89079 6.7627 9.41162 6.7627L14.0503 7.01904C14.8071 7.01904 15.4744 6.95394 16.0522 6.82373C16.6382 6.69352 17.1387 6.42904 17.5537 6.03027L17.7979 6.27441C17.1875 6.94173 16.8823 7.8654 16.8823 9.04541C16.8823 10.2254 17.1631 11.1084 17.7246 11.6943L17.4683 11.9385C16.7277 11.2793 15.5314 10.9497 13.8794 10.9497L9.31396 11.2061C8.19906 11.2061 7.43815 11.0026 7.03125 10.5957L6.79932 10.8398C7.10042 11.1491 7.25098 11.556 7.25098 12.0605Z" fill="white"/>
</svg>
