<svg width="180" height="180" viewBox="0 0 180 180" fill="none" xmlns="http://www.w3.org/2000/svg">
<g clip-path="url(#clip0_49_5)">
<rect width="180" height="180" fill="black"/>
<path d="M91.5327 88.9585L91.4351 91.4487C91.4351 91.8963 91.5409 92.5596 91.7524 93.4385C91.9722 94.3092 92.082 94.9521 92.082 95.3672C92.082 95.7904 92.1512 96.3804 92.2896 97.1372C92.4279 97.894 92.4971 98.5003 92.4971 98.9561C92.4971 99.4199 92.2977 99.6519 91.8989 99.6519C91.5083 99.6519 91.313 99.424 91.313 98.9683C91.313 98.5207 91.3822 97.9185 91.5205 97.1616C91.667 96.4129 91.7402 95.8514 91.7402 95.4771C91.7402 95.1027 91.61 94.7609 91.3496 94.4517C91.0892 94.1506 90.7799 94 90.4219 94C89.6081 94 89.2012 94.9888 89.2012 96.9663C89.2012 97.4302 89.2622 98.126 89.3843 99.0537C89.5063 99.9814 89.5674 100.616 89.5674 100.958C89.5674 101.625 89.368 101.959 88.9692 101.959C88.7658 101.959 88.6071 101.869 88.4932 101.69C88.3874 101.52 88.3345 101.271 88.3345 100.946C88.3345 100.62 88.4036 100.026 88.542 99.1636C88.6885 98.3009 88.7617 97.6743 88.7617 97.2837C88.7617 96.8931 88.7373 96.5228 88.6885 96.1729C88.6478 95.8311 88.5664 95.4608 88.4443 95.062C88.3304 94.6714 88.1432 94.354 87.8828 94.1099C87.6305 93.8657 87.3009 93.7437 86.894 93.7437C86.4953 93.7437 86.1331 93.9186 85.8076 94.2686C85.4902 94.6185 85.3315 94.9481 85.3315 95.2573C85.3315 95.5747 85.3885 95.9043 85.5024 96.2461C85.6164 96.5879 85.6733 96.8524 85.6733 97.0396C85.6733 97.3976 85.5391 97.5767 85.2705 97.5767C85.0101 97.5767 84.8799 97.3976 84.8799 97.0396L85.1729 95.0864L85.1606 79.5469C85.1606 78.5866 84.8677 77.785 84.2817 77.1421L84.5259 76.8979C85.1769 77.4757 85.9785 77.7646 86.9307 77.7646H101.018C101.97 77.7646 102.771 77.4757 103.422 76.8979L103.667 77.1421C103.089 77.7931 102.8 78.5256 102.8 79.3394C102.8 80.1532 102.853 80.7839 102.958 81.2314C103.064 81.679 103.3 82.1104 103.667 82.5254L103.422 82.7695C102.991 82.1917 102.454 81.9028 101.811 81.9028H92.5459C92.0902 81.9028 91.6995 81.7482 91.374 81.439L91.1421 81.6709C91.4513 81.9964 91.606 82.3911 91.606 82.855C91.606 83.3188 91.4513 83.7135 91.1421 84.0391L91.374 84.271C91.6426 84.0106 91.964 83.8438 92.3384 83.7705C92.7209 83.6973 93.1725 83.6606 93.6934 83.6606L98.332 83.917C99.0889 83.917 99.7562 83.8519 100.334 83.7217C100.92 83.5915 101.42 83.327 101.835 82.9282L102.08 83.1724C101.469 83.8397 101.164 84.7633 101.164 85.9434C101.164 87.1234 101.445 88.0063 102.006 88.5923L101.75 88.8364C101.009 88.1772 99.8132 87.8477 98.1611 87.8477L93.5957 88.104C92.4808 88.104 91.7199 87.9006 91.313 87.4937L91.0811 87.7378C91.3822 88.047 91.5327 88.4539 91.5327 88.9585Z" fill="white"/>
</g>
<defs>
<clipPath id="clip0_49_5">
<rect width="180" height="180" fill="white"/>
</clipPath>
</defs>
</svg>
